<svg width="960" height="720" viewBox="0 0 960 720" fill="none" xmlns="http://www.w3.org/2000/svg">
  <rect width="960" height="720" rx="40" fill="#132433"/>
  <rect x="28" y="28" width="904" height="664" rx="28" fill="url(#paint0_linear)"/>
  <rect x="72" y="76" width="280" height="120" rx="24" fill="#FFF8F1" fill-opacity="0.1" stroke="#FFF8F1" stroke-opacity="0.16"/>
  <text x="104" y="122" fill="#FFF8F1" font-size="44" font-family="Arial, sans-serif" font-weight="700">Agent Queues</text>
  <text x="104" y="164" fill="#F8D6BE" font-size="24" font-family="Arial, sans-serif">Queue-backed operator workflow</text>

  <rect x="112" y="270" width="210" height="250" rx="28" fill="#FFF8F1" fill-opacity="0.92"/>
  <text x="148" y="320" fill="#132433" font-size="30" font-family="Arial, sans-serif" font-weight="700">Queue</text>
  <rect x="148" y="352" width="138" height="34" rx="12" fill="#F1D0BA"/>
  <rect x="148" y="406" width="138" height="34" rx="12" fill="#F1D0BA"/>
  <rect x="148" y="460" width="138" height="34" rx="12" fill="#F1D0BA"/>

  <rect x="402" y="234" width="182" height="320" rx="28" fill="#0F6B62"/>
  <text x="438" y="292" fill="#F2FFFC" font-size="30" font-family="Arial, sans-serif" font-weight="700">Stream</text>
  <circle cx="493" cy="366" r="40" fill="#FFF8F1" fill-opacity="0.16"/>
  <circle cx="493" cy="366" r="22" fill="#FFF8F1" fill-opacity="0.72"/>
  <rect x="438" y="442" width="110" height="30" rx="10" fill="#F2FFFC" fill-opacity="0.22"/>

  <rect x="664" y="252" width="184" height="122" rx="24" fill="#D4692E"/>
  <text x="706" y="324" fill="#FFF8F1" font-size="28" font-family="Arial, sans-serif" font-weight="700">Success</text>
  <rect x="664" y="406" width="184" height="122" rx="24" fill="#7E2A33"/>
  <text x="715" y="478" fill="#FFF8F1" font-size="28" font-family="Arial, sans-serif" font-weight="700">Failure</text>

  <path d="M322 394H386" stroke="#FFF8F1" stroke-width="12" stroke-linecap="round"/>
  <path d="M584 313H644" stroke="#FFF8F1" stroke-width="12" stroke-linecap="round"/>
  <path d="M584 467H644" stroke="#FFF8F1" stroke-width="12" stroke-linecap="round"/>

  <text x="72" y="624" fill="#FFF8F1" fill-opacity="0.72" font-size="22" font-family="Arial, sans-serif">
    Next.js • Node.js • Upstash Redis • QStash • Zod • typed contracts
  </text>

  <defs>
    <linearGradient id="paint0_linear" x1="84" y1="74" x2="824" y2="640" gradientUnits="userSpaceOnUse">
      <stop stop-color="#20394D"/>
      <stop offset="0.55" stop-color="#1A3144"/>
      <stop offset="1" stop-color="#0F6B62"/>
    </linearGradient>
  </defs>
</svg>

